# xmcd CD database file
#
# Track frame offsets:
#	150
#	18395
#	35443
#	49578
#	69060
#	87689
#	103540
#	126761
#	138296
#	149945
#
# Disc length: 2125 seconds
#
# Revision: 0
# Processed by: cddbd v1.5.2PL0 Copyright (c) Steve Scherf et al.
# Submitted via: CDex 1.51
#
DISCID=8b084b0a
DTITLE=Robin Moxey - One Big Song
DYEAR=2007
DGENRE=Blues
TTITLE0=Everything Changes
TTITLE1=Nothing Bothers Me
TTITLE2=Angel Song
TTITLE3=How Long
TTITLE4=Anybody But Myself
TTITLE5=The Good Times Never Last
TTITLE6=She Belongs To Me
TTITLE7=Can't Stay Here
TTITLE8=Keep On Moving
TTITLE9=Misbegotten You
EXTD=YEAR: 2007
EXTT0=
EXTT1=
EXTT2=
EXTT3=
EXTT4=
EXTT5=
EXTT6=
EXTT7=
EXTT8=
EXTT9=
PLAYORDER=
